STARTFONT 2.2
FONT -dse-7x7-medium-r-normal--17-170-72-72-c-70-iso10646-1
SIZE 17 72 72
FONTBOUNDINGBOX 7 17 0 -3
STARTPROPERTIES 17
SPACING "m"
FOUNDRY "dse"
FAMILY_NAME "7x17"
WEIGHT_NAME "medium"
SLANT "r"
PIXEL_SIZE 17
POINT_SIZE 170
RESOLUTION_X 72
RESOLUTION_Y 72
FONT_ASCENT 14
FONT_DESCENT 3
SETWIDTH_NAME Normal
ADD_STYLE_NAME 
AVERAGE_WIDTH 7
CHARSET_REGISTRY ISO10646
CHARSET_ENCODING 1
DEFAULT_CHAR 32
ENDPROPERTIES
CHARS 65
STARTCHAR space
ENCODING 32
BBX 7 1 0 0
SWIDTH 412 0
DWIDTH 7 0
BITMAP
00
ENDCHAR
STARTCHAR exclam
ENCODING 33
BBX 7 11 0 0
SWIDTH 412 0
DWIDTH 7 0
BITMAP
10
10
10
10
10
10
10
00
00
10
10
ENDCHAR
STARTCHAR quotedbl
ENCODING 34
BBX 7 12 0 0
SWIDTH 412 0
DWIDTH 7 0
BITMAP
28
28
28
28
00
00
00
00
00
00
00
00
ENDCHAR
STARTCHAR numbersign
ENCODING 35
BBX 7 10 0 0
SWIDTH 412 0
DWIDTH 7 0
BITMAP
28
28
28
7C
28
28
7C
28
28
28
ENDCHAR
STARTCHAR dollar
ENCODING 36
BBX 7 13 0 -1
SWIDTH 412 0
DWIDTH 7 0
BITMAP
10
10
3C
50
50
50
38
14
14
14
78
10
10
ENDCHAR
STARTCHAR percent
ENCODING 37
BBX 7 11 0 0
SWIDTH 412 0
DWIDTH 7 0
BITMAP
20
50
24
08
08
10
20
20
48
14
08
ENDCHAR
STARTCHAR ampersand
ENCODING 38
BBX 7 11 0 0
SWIDTH 412 0
DWIDTH 7 0
BITMAP
20
50
50
20
20
54
54
48
48
4C
34
ENDCHAR
STARTCHAR quotesingle
ENCODING 39
BBX 7 11 0 0
SWIDTH 412 0
DWIDTH 7 0
BITMAP
10
10
10
10
00
00
00
00
00
00
00
ENDCHAR
STARTCHAR parenleft
ENCODING 40
BBX 7 11 0 0
SWIDTH 412 0
DWIDTH 7 0
BITMAP
10
20
20
40
40
40
40
40
20
20
10
ENDCHAR
STARTCHAR parenright
ENCODING 41
BBX 7 11 0 0
SWIDTH 412 0
DWIDTH 7 0
BITMAP
10
08
08
04
04
04
04
04
08
08
10
ENDCHAR
STARTCHAR asterisk
ENCODING 42
BBX 7 11 0 0
SWIDTH 412 0
DWIDTH 7 0
BITMAP
00
10
54
54
38
10
38
54
54
10
00
ENDCHAR
STARTCHAR plus
ENCODING 43
BBX 7 11 0 0
SWIDTH 412 0
DWIDTH 7 0
BITMAP
00
00
10
10
10
7C
10
10
10
00
00
ENDCHAR
STARTCHAR comma
ENCODING 44
BBX 7 4 0 -2
SWIDTH 412 0
DWIDTH 7 0
BITMAP
10
10
10
20
ENDCHAR
STARTCHAR hyphen
ENCODING 45
BBX 7 6 0 0
SWIDTH 412 0
DWIDTH 7 0
BITMAP
7C
00
00
00
00
00
ENDCHAR
STARTCHAR period
ENCODING 46
BBX 7 2 0 0
SWIDTH 412 0
DWIDTH 7 0
BITMAP
10
10
ENDCHAR
STARTCHAR slash
ENCODING 47
BBX 7 9 0 0
SWIDTH 412 0
DWIDTH 7 0
BITMAP
04
08
08
10
20
20
40
00
00
ENDCHAR
STARTCHAR zero
ENCODING 48
BBX 7 11 0 0
SWIDTH 412 0
DWIDTH 7 0
BITMAP
38
44
4C
4C
54
54
64
64
44
44
38
ENDCHAR
STARTCHAR one
ENCODING 49
BBX 7 11 0 0
SWIDTH 412 0
DWIDTH 7 0
BITMAP
08
18
28
48
08
08
08
08
08
08
08
ENDCHAR
STARTCHAR two
ENCODING 50
BBX 7 11 0 0
SWIDTH 412 0
DWIDTH 7 0
BITMAP
38
44
04
04
08
10
20
20
40
40
7C
ENDCHAR
STARTCHAR three
ENCODING 51
BBX 7 11 0 0
SWIDTH 412 0
DWIDTH 7 0
BITMAP
7C
04
08
08
10
18
04
04
04
44
38
ENDCHAR
STARTCHAR four
ENCODING 52
BBX 7 11 0 0
SWIDTH 412 0
DWIDTH 7 0
BITMAP
08
08
18
18
28
28
48
7C
08
08
08
ENDCHAR
STARTCHAR five
ENCODING 53
BBX 7 11 0 0
SWIDTH 412 0
DWIDTH 7 0
BITMAP
7C
40
40
70
08
04
04
04
04
44
38
ENDCHAR
STARTCHAR six
ENCODING 54
BBX 7 11 0 0
SWIDTH 412 0
DWIDTH 7 0
BITMAP
1C
20
20
40
40
78
44
44
44
44
38
ENDCHAR
STARTCHAR seven
ENCODING 55
BBX 7 11 0 0
SWIDTH 412 0
DWIDTH 7 0
BITMAP
7C
04
08
08
10
10
20
20
20
20
20
ENDCHAR
STARTCHAR eight
ENCODING 56
BBX 7 11 0 0
SWIDTH 412 0
DWIDTH 7 0
BITMAP
38
44
44
44
44
38
44
44
44
44
38
ENDCHAR
STARTCHAR nine
ENCODING 57
BBX 7 11 0 0
SWIDTH 412 0
DWIDTH 7 0
BITMAP
38
44
44
44
44
3C
04
04
08
08
70
ENDCHAR
STARTCHAR colon
ENCODING 58
BBX 7 9 0 0
SWIDTH 412 0
DWIDTH 7 0
BITMAP
10
10
00
00
00
10
10
00
00
ENDCHAR
STARTCHAR semicolon
ENCODING 59
BBX 7 9 0 0
SWIDTH 412 0
DWIDTH 7 0
BITMAP
10
10
00
00
00
10
10
10
20
ENDCHAR
STARTCHAR less
ENCODING 60
BBX 7 10 0 0
SWIDTH 412 0
DWIDTH 7 0
BITMAP
04
08
10
20
40
20
10
08
04
00
ENDCHAR
STARTCHAR equal
ENCODING 61
BBX 7 8 0 0
SWIDTH 412 0
DWIDTH 7 0
BITMAP
7C
00
00
00
7C
00
00
00
ENDCHAR
STARTCHAR greater
ENCODING 62
BBX 7 10 0 0
SWIDTH 412 0
DWIDTH 7 0
BITMAP
40
20
10
08
04
08
10
20
40
00
ENDCHAR
STARTCHAR question
ENCODING 63
BBX 7 11 0 0
SWIDTH 412 0
DWIDTH 7 0
BITMAP
38
44
04
08
10
10
10
00
00
10
10
ENDCHAR
STARTCHAR at
ENCODING 64
BBX 7 11 0 0
SWIDTH 412 0
DWIDTH 7 0
BITMAP
38
44
44
44
4C
54
54
5C
40
40
3C
ENDCHAR
STARTCHAR A
ENCODING 65
BBX 7 11 0 0
SWIDTH 412 0
DWIDTH 7 0
BITMAP
10
10
28
28
44
44
44
7C
44
44
44
ENDCHAR
STARTCHAR B
ENCODING 66
BBX 7 11 0 0
SWIDTH 412 0
DWIDTH 7 0
BITMAP
78
44
44
44
44
78
44
44
44
44
78
ENDCHAR
STARTCHAR C
ENCODING 67
BBX 7 11 0 0
SWIDTH 412 0
DWIDTH 7 0
BITMAP
38
44
40
40
40
40
40
40
40
44
38
ENDCHAR
STARTCHAR D
ENCODING 68
BBX 7 11 0 0
SWIDTH 412 0
DWIDTH 7 0
BITMAP
78
44
44
44
44
44
44
44
44
44
78
ENDCHAR
STARTCHAR E
ENCODING 69
BBX 7 11 0 0
SWIDTH 412 0
DWIDTH 7 0
BITMAP
7C
40
40
40
40
78
40
40
40
40
7C
ENDCHAR
STARTCHAR F
ENCODING 70
BBX 7 11 0 0
SWIDTH 412 0
DWIDTH 7 0
BITMAP
7C
40
40
40
40
78
40
40
40
40
40
ENDCHAR
STARTCHAR G
ENCODING 71
BBX 7 11 0 0
SWIDTH 412 0
DWIDTH 7 0
BITMAP
38
44
40
40
40
40
4C
44
44
44
38
ENDCHAR
STARTCHAR H
ENCODING 72
BBX 7 11 0 0
SWIDTH 412 0
DWIDTH 7 0
BITMAP
44
44
44
44
44
7C
44
44
44
44
44
ENDCHAR
STARTCHAR I
ENCODING 73
BBX 7 11 0 0
SWIDTH 412 0
DWIDTH 7 0
BITMAP
38
10
10
10
10
10
10
10
10
10
38
ENDCHAR
STARTCHAR J
ENCODING 74
BBX 7 11 0 0
SWIDTH 412 0
DWIDTH 7 0
BITMAP
04
04
04
04
04
04
04
04
04
44
38
ENDCHAR
STARTCHAR K
ENCODING 75
BBX 7 11 0 0
SWIDTH 412 0
DWIDTH 7 0
BITMAP
44
44
48
50
50
60
50
50
48
44
44
ENDCHAR
STARTCHAR L
ENCODING 76
BBX 7 11 0 0
SWIDTH 412 0
DWIDTH 7 0
BITMAP
40
40
40
40
40
40
40
40
40
40
7C
ENDCHAR
STARTCHAR M
ENCODING 77
BBX 7 11 0 0
SWIDTH 412 0
DWIDTH 7 0
BITMAP
44
44
6C
6C
54
54
54
44
44
44
44
ENDCHAR
STARTCHAR N
ENCODING 78
BBX 7 11 0 0
SWIDTH 412 0
DWIDTH 7 0
BITMAP
44
44
64
64
54
54
4C
4C
44
44
44
ENDCHAR
STARTCHAR O
ENCODING 79
BBX 7 11 0 0
SWIDTH 412 0
DWIDTH 7 0
BITMAP
38
44
44
44
44
44
44
44
44
44
38
ENDCHAR
STARTCHAR P
ENCODING 80
BBX 7 11 0 0
SWIDTH 412 0
DWIDTH 7 0
BITMAP
78
44
44
44
44
78
40
40
40
40
40
ENDCHAR
STARTCHAR Q
ENCODING 81
BBX 7 11 0 0
SWIDTH 412 0
DWIDTH 7 0
BITMAP
38
44
44
44
44
44
54
54
48
48
34
ENDCHAR
STARTCHAR R
ENCODING 82
BBX 7 11 0 0
SWIDTH 412 0
DWIDTH 7 0
BITMAP
78
44
44
44
44
78
50
48
48
44
44
ENDCHAR
STARTCHAR S
ENCODING 83
BBX 7 11 0 0
SWIDTH 412 0
DWIDTH 7 0
BITMAP
38
44
40
40
40
38
04
04
04
44
38
ENDCHAR
STARTCHAR T
ENCODING 84
BBX 7 11 0 0
SWIDTH 412 0
DWIDTH 7 0
BITMAP
7C
10
10
10
10
10
10
10
10
10
10
ENDCHAR
STARTCHAR U
ENCODING 85
BBX 7 11 0 0
SWIDTH 412 0
DWIDTH 7 0
BITMAP
44
44
44
44
44
44
44
44
44
44
38
ENDCHAR
STARTCHAR V
ENCODING 86
BBX 7 11 0 0
SWIDTH 412 0
DWIDTH 7 0
BITMAP
44
44
44
44
44
44
44
28
28
10
10
ENDCHAR
STARTCHAR W
ENCODING 87
BBX 7 11 0 0
SWIDTH 412 0
DWIDTH 7 0
BITMAP
44
44
44
44
44
44
44
54
54
6C
44
ENDCHAR
STARTCHAR X
ENCODING 88
BBX 7 11 0 0
SWIDTH 412 0
DWIDTH 7 0
BITMAP
44
44
44
28
28
10
28
28
44
44
44
ENDCHAR
STARTCHAR Y
ENCODING 89
BBX 7 11 0 0
SWIDTH 412 0
DWIDTH 7 0
BITMAP
44
44
44
28
28
10
10
10
10
10
10
ENDCHAR
STARTCHAR Z
ENCODING 90
BBX 7 11 0 0
SWIDTH 412 0
DWIDTH 7 0
BITMAP
7C
04
08
08
10
10
10
20
20
40
7C
ENDCHAR
STARTCHAR bracketleft
ENCODING 91
BBX 7 10 0 0
SWIDTH 412 0
DWIDTH 7 0
BITMAP
7C
60
60
60
60
60
60
60
60
7C
ENDCHAR
STARTCHAR backslash
ENCODING 92
BBX 7 9 0 0
SWIDTH 412 0
DWIDTH 7 0
BITMAP
40
20
20
10
08
08
04
00
00
ENDCHAR
STARTCHAR bracketright
ENCODING 93
BBX 7 10 0 0
SWIDTH 412 0
DWIDTH 7 0
BITMAP
7C
0C
0C
0C
0C
0C
0C
0C
0C
7C
ENDCHAR
STARTCHAR asciicircum
ENCODING 94
BBX 7 11 0 0
SWIDTH 412 0
DWIDTH 7 0
BITMAP
10
28
28
44
44
00
00
00
00
00
00
ENDCHAR
STARTCHAR underscore
ENCODING 95
BBX 7 3 0 -2
SWIDTH 412 0
DWIDTH 7 0
BITMAP
00
00
7C
ENDCHAR
STARTCHAR grave
ENCODING 96
BBX 7 11 0 0
SWIDTH 412 0
DWIDTH 7 0
BITMAP
40
20
10
08
04
00
00
00
00
00
00
ENDCHAR
ENDFONT
